<?xml version="1.0" encoding="UTF-8" standalone="no"?> <svg id="Layer_1" data-name="Layer 1" xmlns="http://www.w3.org/2000/svg" viewBox="0 0 512 512"><defs><style>.cls-1{fill:#ffd38d;}.cls-2{fill:#aadda2;}.cls-3{fill:#6d4135;}</style></defs><title>square-padlock-unlocked-filled</title><rect class="cls-1" x="64" y="192" width="384" height="298.67"/><circle class="cls-2" cx="256" cy="320" r="42.67"/><path class="cls-3" d="M448,170.67H170.67V128a85.35,85.35,0,0,1,169-17.07,21.33,21.33,0,1,0,41.8-8.52A128,128,0,0,0,128,128v42.67H64A21.33,21.33,0,0,0,42.67,192V490.67A21.33,21.33,0,0,0,64,512H448a21.33,21.33,0,0,0,21.33-21.33V192A21.33,21.33,0,0,0,448,170.67ZM426.67,469.33H85.33v-256H426.67Z"/><path class="cls-3" d="M234.67,380.33v46.34a21.33,21.33,0,1,0,42.67,0V380.33a64,64,0,1,0-42.67,0ZM256,298.67A21.33,21.33,0,1,1,234.67,320,21.36,21.36,0,0,1,256,298.67Z"/></svg>